<svg width="29" height="28" viewBox="0 0 29 28" fill="none" xmlns="http://www.w3.org/2000/svg">
<path d="M18.991 0.000136604C18.7745 0.00874444 18.2086 -0.0536624 17.991 0.000136604L3.98746 4.00013C2.24651 4.42407 0.557916 6.26888 0.983974 8.00013L2.97699 16.0001C3.10158 16.4989 3.63501 16.6141 3.97612 17.0001C4.31723 17.3861 4.49378 17.813 4.97525 18.0001L4.97699 16.0001C4.97958 13.0337 7.99703 11.0001 10.9814 11.0001L23.9814 11.0001L21.9892 2.00014C21.8103 1.27817 21.5876 1.44723 20.9901 1.00014C20.3926 0.553047 19.7386 -0.0285193 18.991 0.000136604ZM19.9866 5.00013L20.984 8.00013L16.9831 9.00013L16.9857 6.00013L19.9866 5.00013ZM10.9796 13.0001C9.18707 13.0001 6.97855 14.2183 6.97699 16.0001L6.96914 25.0001C6.96758 26.782 9.17398 28.0001 10.9665 28.0001H25.9665C27.7591 28.0001 28.9676 26.782 28.9691 25.0001L28.977 16.0001C28.9785 14.2183 27.7722 13.0001 25.9796 13.0001L10.9796 13.0001ZM10.9779 15.0001L25.9779 15.0001C26.8124 15.0001 26.9777 15.1706 26.977 16.0001L26.9761 17.0001H8.97612L8.97699 16.0001C8.97772 15.1706 10.1433 15.0001 10.9779 15.0001ZM8.9735 20.0001H26.9735L26.9691 25.0001C26.9684 25.8297 26.8028 26.0001 25.9683 26.0001H10.9683C10.5653 25.9979 9.25295 26.2834 8.96827 26.0001C8.68359 25.7169 8.97106 25.4007 8.96914 25.0001L8.9735 20.0001Z" fill="#020204"/>
</svg>
